<?xml version="1.0" encoding="UTF-8"?>
<!DOCTYPE svg PUBLIC "-//W3C//DTD SVG 1.1//EN" "http://www.w3.org/Graphics/SVG/1.1/DTD/svg11.dtd">
<svg xmlns="http://www.w3.org/2000/svg" version="1.1" viewBox="-2.5 -117.31 183.43 107.74">
	<title>
		6500DumpCircuit.sch - sheet 1 of 1
	</title>
	<desc>
		Generated by Silver Dream ! using eagle2svg
	</desc>
	<defs>
		<style type="text/css">
			line {stroke:#000000; fill:none; stroke-linecap:round;}
			line.sw015 {stroke-width:0.15;}
			line.sw025 {stroke-width:0.25;}
			line.sw075 {stroke-width:0.75;}
			path {stroke:#000000; fill:none; stroke-linecap:round;}
			path.sw025 {stroke-width:0.25;}
			circle.l {stroke:#000000; fill:none;}
			circle.j {fill:#000000;}
			rect {fill:#000000;}
			text {font-family:sans-serif; fill:#000000; }
		</style>
	</defs>
	<title>
		NET D0
	</title>
	<line class="sw015" x1="86.36" y1="-86.36" x2="83.82" y2="-83.82"/>
	<line class="sw015" x1="83.82" y1="-83.82" x2="73.66" y2="-83.82"/>
	<text x="78.74" y="-83.82" font-size="1.96">
		D0
	</text>
	<line class="sw015" x1="124.46" y1="-83.82" x2="121.92" y2="-81.28"/>
	<line class="sw015" x1="121.92" y1="-81.28" x2="106.68" y2="-81.28"/>
	<text x="109.22" y="-81.28" font-size="1.96">
		D0
	</text>
	<title>
		NET D1
	</title>
	<line class="sw015" x1="86.36" y1="-88.9" x2="83.82" y2="-86.36"/>
	<line class="sw015" x1="83.82" y1="-86.36" x2="73.66" y2="-86.36"/>
	<text x="78.74" y="-86.36" font-size="1.96">
		D1
	</text>
	<line class="sw015" x1="124.46" y1="-81.28" x2="121.92" y2="-78.74"/>
	<line class="sw015" x1="121.92" y1="-78.74" x2="106.68" y2="-78.74"/>
	<text x="109.22" y="-78.74" font-size="1.96">
		D1
	</text>
	<title>
		NET D2
	</title>
	<line class="sw015" x1="86.36" y1="-91.44" x2="83.82" y2="-88.9"/>
	<line class="sw015" x1="83.82" y1="-88.9" x2="73.66" y2="-88.9"/>
	<text x="78.74" y="-88.9" font-size="1.96">
		D2
	</text>
	<line class="sw015" x1="124.46" y1="-78.74" x2="121.92" y2="-76.2"/>
	<line class="sw015" x1="121.92" y1="-76.2" x2="106.68" y2="-76.2"/>
	<text x="109.22" y="-76.2" font-size="1.96">
		D2
	</text>
	<title>
		NET D3
	</title>
	<line class="sw015" x1="86.36" y1="-93.98" x2="83.82" y2="-91.44"/>
	<line class="sw015" x1="83.82" y1="-91.44" x2="73.66" y2="-91.44"/>
	<text x="78.74" y="-91.44" font-size="1.96">
		D3
	</text>
	<line class="sw015" x1="124.46" y1="-76.2" x2="121.92" y2="-73.66"/>
	<line class="sw015" x1="121.92" y1="-73.66" x2="106.68" y2="-73.66"/>
	<text x="109.22" y="-73.66" font-size="1.96">
		D3
	</text>
	<title>
		NET D4
	</title>
	<line class="sw015" x1="86.36" y1="-96.52" x2="83.82" y2="-93.98"/>
	<line class="sw015" x1="83.82" y1="-93.98" x2="73.66" y2="-93.98"/>
	<text x="78.74" y="-93.98" font-size="1.96">
		D4
	</text>
	<line class="sw015" x1="124.46" y1="-73.66" x2="121.92" y2="-71.12"/>
	<line class="sw015" x1="121.92" y1="-71.12" x2="106.68" y2="-71.12"/>
	<text x="109.22" y="-71.12" font-size="1.96">
		D4
	</text>
	<title>
		NET D5
	</title>
	<line class="sw015" x1="86.36" y1="-99.06" x2="83.82" y2="-96.52"/>
	<line class="sw015" x1="83.82" y1="-96.52" x2="73.66" y2="-96.52"/>
	<text x="78.74" y="-96.52" font-size="1.96">
		D5
	</text>
	<line class="sw015" x1="124.46" y1="-71.12" x2="121.92" y2="-68.58"/>
	<line class="sw015" x1="121.92" y1="-68.58" x2="106.68" y2="-68.58"/>
	<text x="109.22" y="-68.58" font-size="1.96">
		D5
	</text>
	<title>
		NET D6
	</title>
	<line class="sw015" x1="86.36" y1="-101.6" x2="83.82" y2="-99.06"/>
	<line class="sw015" x1="83.82" y1="-99.06" x2="73.66" y2="-99.06"/>
	<text x="78.74" y="-99.06" font-size="1.96">
		D6
	</text>
	<line class="sw015" x1="124.46" y1="-68.58" x2="121.92" y2="-66.04"/>
	<line class="sw015" x1="121.92" y1="-66.04" x2="106.68" y2="-66.04"/>
	<text x="109.22" y="-66.04" font-size="1.96">
		D6
	</text>
	<title>
		NET D7
	</title>
	<line class="sw015" x1="86.36" y1="-104.14" x2="83.82" y2="-101.6"/>
	<line class="sw015" x1="83.82" y1="-101.6" x2="73.66" y2="-101.6"/>
	<text x="78.74" y="-101.6" font-size="1.96">
		D7
	</text>
	<line class="sw015" x1="124.46" y1="-66.04" x2="121.92" y2="-63.5"/>
	<line class="sw015" x1="121.92" y1="-63.5" x2="106.68" y2="-63.5"/>
	<text x="109.22" y="-63.5" font-size="1.96">
		D7
	</text>
	<title>
		NET GND
	</title>
	<line class="sw015" x1="7.62" y1="-96.52" x2="5.08" y2="-96.52"/>
	<line class="sw015" x1="5.08" y1="-96.52" x2="5.08" y2="-86.36"/>
	<line class="sw015" x1="5.08" y1="-86.36" x2="7.62" y2="-86.36"/>
	<line class="sw015" x1="5.08" y1="-86.36" x2="5.08" y2="-78.74"/>
	<line class="sw015" x1="5.08" y1="-78.74" x2="33.02" y2="-78.74"/>
	<line class="sw015" x1="5.08" y1="-78.74" x2="5.08" y2="-71.12"/>
	<line class="sw015" x1="5.08" y1="-71.12" x2="33.02" y2="-71.12"/>
	<line class="sw015" x1="5.08" y1="-71.12" x2="5.08" y2="-66.04"/>
	<circle class="j" cx="5.08" cy="-86.36" r="0.51"/>
	<circle class="j" cx="5.08" cy="-78.74" r="0.51"/>
	<circle class="j" cx="5.08" cy="-71.12" r="0.51"/>
	<line class="sw015" x1="144.78" y1="-71.12" x2="144.78" y2="-68.58"/>
	<line class="sw015" x1="167.64" y1="-66.04" x2="167.64" y2="-63.5"/>
	<line class="sw015" x1="91.44" y1="-58.42" x2="88.9" y2="-58.42"/>
	<line class="sw015" x1="88.9" y1="-58.42" x2="88.9" y2="-17.78"/>
	<title>
		NET N$1
	</title>
	<line class="sw015" x1="152.4" y1="-76.2" x2="149.86" y2="-76.2"/>
	<line class="sw015" x1="152.4" y1="-33.02" x2="152.4" y2="-76.2"/>
	<line class="sw015" x1="116.84" y1="-33.02" x2="152.4" y2="-33.02"/>
	<title>
		NET N$2
	</title>
	<line class="sw015" x1="33.02" y1="-93.98" x2="27.94" y2="-93.98"/>
	<line class="sw015" x1="27.94" y1="-93.98" x2="27.94" y2="-96.52"/>
	<line class="sw015" x1="27.94" y1="-96.52" x2="22.86" y2="-96.52"/>
	<line class="sw015" x1="22.86" y1="-96.52" x2="15.24" y2="-96.52"/>
	<line class="sw015" x1="22.86" y1="-93.98" x2="22.86" y2="-96.52"/>
	<circle class="j" cx="22.86" cy="-96.52" r="0.51"/>
	<title>
		NET N$3
	</title>
	<line class="sw015" x1="33.02" y1="-88.9" x2="27.94" y2="-88.9"/>
	<line class="sw015" x1="27.94" y1="-88.9" x2="27.94" y2="-86.36"/>
	<line class="sw015" x1="27.94" y1="-86.36" x2="22.86" y2="-86.36"/>
	<line class="sw015" x1="22.86" y1="-86.36" x2="15.24" y2="-86.36"/>
	<line class="sw015" x1="22.86" y1="-88.9" x2="22.86" y2="-86.36"/>
	<circle class="j" cx="22.86" cy="-86.36" r="0.51"/>
	<title>
		NET N$4
	</title>
	<line class="sw015" x1="73.66" y1="-33.02" x2="86.36" y2="-33.02"/>
	<line class="sw015" x1="86.36" y1="-33.02" x2="86.36" y2="-63.5"/>
	<line class="sw015" x1="86.36" y1="-63.5" x2="91.44" y2="-63.5"/>
	<title>
		NET N$5
	</title>
	<line class="sw015" x1="73.66" y1="-38.1" x2="91.44" y2="-38.1"/>
	<title>
		NET N$6
	</title>
	<line class="sw015" x1="73.66" y1="-40.64" x2="91.44" y2="-40.64"/>
	<title>
		NET N$7
	</title>
	<line class="sw015" x1="73.66" y1="-43.18" x2="91.44" y2="-43.18"/>
	<title>
		NET N$8
	</title>
	<line class="sw015" x1="73.66" y1="-45.72" x2="91.44" y2="-45.72"/>
	<title>
		NET N$9
	</title>
	<line class="sw015" x1="73.66" y1="-48.26" x2="91.44" y2="-48.26"/>
	<title>
		NET N$10
	</title>
	<line class="sw015" x1="73.66" y1="-50.8" x2="91.44" y2="-50.8"/>
	<title>
		NET N$11
	</title>
	<line class="sw015" x1="73.66" y1="-53.34" x2="91.44" y2="-53.34"/>
	<title>
		NET N$12
	</title>
	<line class="sw015" x1="73.66" y1="-55.88" x2="91.44" y2="-55.88"/>
	<title>
		NET N$13
	</title>
	<line class="sw015" x1="175.26" y1="-83.82" x2="172.72" y2="-83.82"/>
	<line class="sw015" x1="175.26" y1="-27.94" x2="175.26" y2="-83.82"/>
	<line class="sw015" x1="106.68" y1="-27.94" x2="175.26" y2="-27.94"/>
	<title>
		NET N$14
	</title>
	<line class="sw015" x1="106.68" y1="-83.82" x2="116.84" y2="-83.82"/>
	<line class="sw015" x1="116.84" y1="-83.82" x2="144.78" y2="-83.82"/>
	<line class="sw015" x1="144.78" y1="-83.82" x2="144.78" y2="-86.36"/>
	<line class="sw015" x1="144.78" y1="-83.82" x2="144.78" y2="-81.28"/>
	<line class="sw015" x1="116.84" y1="-86.36" x2="116.84" y2="-83.82"/>
	<circle class="j" cx="144.78" cy="-83.82" r="0.51"/>
	<circle class="j" cx="116.84" cy="-83.82" r="0.51"/>
	<title>
		NET N$15
	</title>
	<line class="sw015" x1="149.86" y1="-91.44" x2="167.64" y2="-91.44"/>
	<line class="sw015" x1="167.64" y1="-91.44" x2="167.64" y2="-93.98"/>
	<line class="sw015" x1="167.64" y1="-91.44" x2="167.64" y2="-88.9"/>
	<circle class="j" cx="167.64" cy="-91.44" r="0.51"/>
	<title>
		NET N$16
	</title>
	<line class="sw015" x1="73.66" y1="-30.48" x2="93.98" y2="-30.48"/>
	<line class="sw015" x1="93.98" y1="-30.48" x2="93.98" y2="-33.02"/>
	<line class="sw015" x1="93.98" y1="-33.02" x2="106.68" y2="-33.02"/>
	<title>
		NET N$17
	</title>
	<line class="sw015" x1="167.64" y1="-78.74" x2="167.64" y2="-76.2"/>
	<title>
		NET N$18
	</title>
	<line class="sw015" x1="73.66" y1="-27.94" x2="96.52" y2="-27.94"/>
	<title>
		NET VCC
	</title>
	<line class="sw015" x1="0" y1="-109.22" x2="0" y2="-81.28"/>
	<line class="sw015" x1="0" y1="-81.28" x2="33.02" y2="-81.28"/>
	<line class="sw015" x1="33.02" y1="-73.66" x2="0" y2="-73.66"/>
	<line class="sw015" x1="0" y1="-73.66" x2="0" y2="-81.28"/>
	<circle class="j" cx="0" cy="-81.28" r="0.51"/>
	<line class="sw015" x1="106.68" y1="-60.96" x2="134.62" y2="-60.96"/>
	<line class="sw015" x1="134.62" y1="-60.96" x2="134.62" y2="-99.06"/>
	<line class="sw015" x1="134.62" y1="-99.06" x2="134.62" y2="-109.22"/>
	<line class="sw015" x1="91.44" y1="-86.36" x2="88.9" y2="-86.36"/>
	<line class="sw015" x1="88.9" y1="-86.36" x2="88.9" y2="-99.06"/>
	<line class="sw015" x1="88.9" y1="-99.06" x2="109.22" y2="-99.06"/>
	<line class="sw015" x1="109.22" y1="-99.06" x2="116.84" y2="-99.06"/>
	<line class="sw015" x1="116.84" y1="-99.06" x2="134.62" y2="-99.06"/>
	<line class="sw015" x1="106.68" y1="-86.36" x2="109.22" y2="-86.36"/>
	<line class="sw015" x1="109.22" y1="-86.36" x2="109.22" y2="-99.06"/>
	<line class="sw015" x1="116.84" y1="-96.52" x2="116.84" y2="-99.06"/>
	<circle class="j" cx="134.62" cy="-99.06" r="0.51"/>
	<circle class="j" cx="109.22" cy="-99.06" r="0.51"/>
	<circle class="j" cx="116.84" cy="-99.06" r="0.51"/>
	<title>
		NET VDD
	</title>
	<line class="sw015" x1="167.64" y1="-104.14" x2="167.64" y2="-106.68"/>
	<line class="sw015" x1="167.64" y1="-106.68" x2="167.64" y2="-109.22"/>
	<line class="sw015" x1="167.64" y1="-106.68" x2="144.78" y2="-106.68"/>
	<line class="sw015" x1="144.78" y1="-106.68" x2="144.78" y2="-96.52"/>
	<circle class="j" cx="167.64" cy="-106.68" r="0.51"/>
	<title>
		BUS D[0..7]
	</title>
	<line class="sw075" x1="86.36" y1="-86.36" x2="86.36" y2="-109.22"/>
	<line class="sw075" x1="86.36" y1="-109.22" x2="124.46" y2="-109.22"/>
	<line class="sw075" x1="124.46" y1="-109.22" x2="124.46" y2="-66.04"/>
	<title>
		PART 6500/1
	</title>
	<line class="sw015" x1="91.44" y1="-86.36" x2="93.98" y2="-86.36"/>
	<text x="93.62" y="-86.72" style="font-size:1.68;text-anchor:end">
		1
	</text>
	<line class="sw015" x1="91.44" y1="-83.82" x2="93.98" y2="-83.82"/>
	<text x="93.62" y="-84.18" style="font-size:1.68;text-anchor:end">
		2
	</text>
	<line class="sw015" x1="91.44" y1="-81.28" x2="93.98" y2="-81.28"/>
	<text x="93.62" y="-81.64" style="font-size:1.68;text-anchor:end">
		3
	</text>
	<line class="sw015" x1="91.44" y1="-78.74" x2="93.98" y2="-78.74"/>
	<text x="93.62" y="-79.1" style="font-size:1.68;text-anchor:end">
		4
	</text>
	<line class="sw015" x1="91.44" y1="-76.2" x2="93.98" y2="-76.2"/>
	<text x="93.62" y="-76.56" style="font-size:1.68;text-anchor:end">
		5
	</text>
	<line class="sw015" x1="91.44" y1="-73.66" x2="93.98" y2="-73.66"/>
	<text x="93.62" y="-74.02" style="font-size:1.68;text-anchor:end">
		6
	</text>
	<line class="sw015" x1="91.44" y1="-71.12" x2="93.98" y2="-71.12"/>
	<text x="93.62" y="-71.48" style="font-size:1.68;text-anchor:end">
		7
	</text>
	<line class="sw015" x1="91.44" y1="-68.58" x2="93.98" y2="-68.58"/>
	<text x="93.62" y="-68.94" style="font-size:1.68;text-anchor:end">
		8
	</text>
	<line class="sw015" x1="91.44" y1="-66.04" x2="93.98" y2="-66.04"/>
	<text x="93.62" y="-66.4" style="font-size:1.68;text-anchor:end">
		9
	</text>
	<line class="sw015" x1="91.44" y1="-63.5" x2="93.98" y2="-63.5"/>
	<text x="93.62" y="-63.86" style="font-size:1.68;text-anchor:end">
		10
	</text>
	<line class="sw015" x1="91.44" y1="-60.96" x2="93.98" y2="-60.96"/>
	<text x="93.62" y="-61.32" style="font-size:1.68;text-anchor:end">
		11
	</text>
	<line class="sw015" x1="91.44" y1="-58.42" x2="93.98" y2="-58.42"/>
	<text x="93.62" y="-58.78" style="font-size:1.68;text-anchor:end">
		12
	</text>
	<line class="sw015" x1="91.44" y1="-55.88" x2="93.98" y2="-55.88"/>
	<text x="93.62" y="-56.24" style="font-size:1.68;text-anchor:end">
		13
	</text>
	<line class="sw015" x1="91.44" y1="-53.34" x2="93.98" y2="-53.34"/>
	<text x="93.62" y="-53.7" style="font-size:1.68;text-anchor:end">
		14
	</text>
	<line class="sw015" x1="91.44" y1="-50.8" x2="93.98" y2="-50.8"/>
	<text x="93.62" y="-51.16" style="font-size:1.68;text-anchor:end">
		15
	</text>
	<line class="sw015" x1="91.44" y1="-48.26" x2="93.98" y2="-48.26"/>
	<text x="93.62" y="-48.62" style="font-size:1.68;text-anchor:end">
		16
	</text>
	<line class="sw015" x1="91.44" y1="-45.72" x2="93.98" y2="-45.72"/>
	<text x="93.62" y="-46.08" style="font-size:1.68;text-anchor:end">
		17
	</text>
	<line class="sw015" x1="91.44" y1="-43.18" x2="93.98" y2="-43.18"/>
	<text x="93.62" y="-43.54" style="font-size:1.68;text-anchor:end">
		18
	</text>
	<line class="sw015" x1="91.44" y1="-40.64" x2="93.98" y2="-40.64"/>
	<text x="93.62" y="-41" style="font-size:1.68;text-anchor:end">
		19
	</text>
	<line class="sw015" x1="91.44" y1="-38.1" x2="93.98" y2="-38.1"/>
	<text x="93.62" y="-38.46" style="font-size:1.68;text-anchor:end">
		20
	</text>
	<line class="sw015" x1="106.68" y1="-38.1" x2="104.14" y2="-38.1"/>
	<text x="104.5" y="-38.46" font-size="1.68">
		21
	</text>
	<line class="sw015" x1="106.68" y1="-40.64" x2="104.14" y2="-40.64"/>
	<text x="104.5" y="-41" font-size="1.68">
		22
	</text>
	<line class="sw015" x1="106.68" y1="-43.18" x2="104.14" y2="-43.18"/>
	<text x="104.5" y="-43.54" font-size="1.68">
		23
	</text>
	<line class="sw015" x1="106.68" y1="-45.72" x2="104.14" y2="-45.72"/>
	<text x="104.5" y="-46.08" font-size="1.68">
		24
	</text>
	<line class="sw015" x1="106.68" y1="-48.26" x2="104.14" y2="-48.26"/>
	<text x="104.5" y="-48.62" font-size="1.68">
		25
	</text>
	<line class="sw015" x1="106.68" y1="-50.8" x2="104.14" y2="-50.8"/>
	<text x="104.5" y="-51.16" font-size="1.68">
		26
	</text>
	<line class="sw015" x1="106.68" y1="-53.34" x2="104.14" y2="-53.34"/>
	<text x="104.5" y="-53.7" font-size="1.68">
		27
	</text>
	<line class="sw015" x1="106.68" y1="-55.88" x2="104.14" y2="-55.88"/>
	<text x="104.5" y="-56.24" font-size="1.68">
		28
	</text>
	<line class="sw015" x1="106.68" y1="-58.42" x2="104.14" y2="-58.42"/>
	<text x="104.5" y="-58.78" font-size="1.68">
		29
	</text>
	<line class="sw015" x1="106.68" y1="-60.96" x2="104.14" y2="-60.96"/>
	<text x="104.5" y="-61.32" font-size="1.68">
		30
	</text>
	<line class="sw015" x1="106.68" y1="-63.5" x2="104.14" y2="-63.5"/>
	<text x="104.5" y="-63.86" font-size="1.68">
		31
	</text>
	<line class="sw015" x1="106.68" y1="-66.04" x2="104.14" y2="-66.04"/>
	<text x="104.5" y="-66.4" font-size="1.68">
		32
	</text>
	<line class="sw015" x1="106.68" y1="-68.58" x2="104.14" y2="-68.58"/>
	<text x="104.5" y="-68.94" font-size="1.68">
		33
	</text>
	<line class="sw015" x1="106.68" y1="-71.12" x2="104.14" y2="-71.12"/>
	<text x="104.5" y="-71.48" font-size="1.68">
		34
	</text>
	<line class="sw015" x1="106.68" y1="-73.66" x2="104.14" y2="-73.66"/>
	<text x="104.5" y="-74.02" font-size="1.68">
		35
	</text>
	<line class="sw015" x1="106.68" y1="-76.2" x2="104.14" y2="-76.2"/>
	<text x="104.5" y="-76.56" font-size="1.68">
		36
	</text>
	<line class="sw015" x1="106.68" y1="-78.74" x2="104.14" y2="-78.74"/>
	<text x="104.5" y="-79.1" font-size="1.68">
		37
	</text>
	<line class="sw015" x1="106.68" y1="-81.28" x2="104.14" y2="-81.28"/>
	<text x="104.5" y="-81.64" font-size="1.68">
		38
	</text>
	<line class="sw015" x1="106.68" y1="-83.82" x2="104.14" y2="-83.82"/>
	<text x="104.5" y="-84.18" font-size="1.68">
		39
	</text>
	<line class="sw015" x1="106.68" y1="-86.36" x2="104.14" y2="-86.36"/>
	<text x="104.5" y="-86.72" font-size="1.68">
		40
	</text>
	<line class="sw025" x1="93.98" y1="-87.63" x2="93.98" y2="-36.83"/>
	<line class="sw025" x1="93.98" y1="-36.83" x2="104.14" y2="-36.83"/>
	<line class="sw025" x1="104.14" y1="-36.83" x2="104.14" y2="-87.63"/>
	<line class="sw025" x1="104.14" y1="-87.63" x2="101.6" y2="-87.63"/>
	<line class="sw025" x1="93.98" y1="-87.63" x2="96.52" y2="-87.63"/>
	<path class="sw025" d="M96.52-87.63A2.54 2.54 0 1 0 101.6-87.63"/>
	<text x="94.62" y="-88.26" font-size="1.96">
		6500/1
	</text>
	<title>
		PART C1
	</title>
	<rect x="8.89" y="-96.77" width="4.06" height="0.51" transform="rotate(-90.000000,10.922000,-96.520000)"/>
	<rect x="9.91" y="-96.77" width="4.06" height="0.51" transform="rotate(-90.000000,11.938000,-96.520000)"/>
	<line class="sw015" x1="7.62" y1="-96.52" x2="10.16" y2="-96.52"/>
	<line class="sw015" x1="15.24" y1="-96.52" x2="12.7" y2="-96.52"/>
	<line class="sw015" x1="12.7" y1="-96.52" x2="12.19" y2="-96.52"/>
	<line class="sw015" x1="10.16" y1="-96.52" x2="10.67" y2="-96.52"/>
	<text x="6.6" y="-96.9" font-size="1.96">
		C1
	</text>
	<text x="16.26" y="-94.36" style="font-size:1.96;text-anchor:end">
		18
	</text>
	<title>
		PART C2
	</title>
	<rect x="8.89" y="-86.61" width="4.06" height="0.51" transform="rotate(-90.000000,10.922000,-86.360000)"/>
	<rect x="9.91" y="-86.61" width="4.06" height="0.51" transform="rotate(-90.000000,11.938000,-86.360000)"/>
	<line class="sw015" x1="7.62" y1="-86.36" x2="10.16" y2="-86.36"/>
	<line class="sw015" x1="15.24" y1="-86.36" x2="12.7" y2="-86.36"/>
	<line class="sw015" x1="12.7" y1="-86.36" x2="12.19" y2="-86.36"/>
	<line class="sw015" x1="10.16" y1="-86.36" x2="10.67" y2="-86.36"/>
	<text x="6.6" y="-86.74" font-size="1.96">
		C2
	</text>
	<text x="16.26" y="-84.2" style="font-size:1.96;text-anchor:end">
		18
	</text>
	<title>
		PART IC1
	</title>
	<line class="sw015" x1="73.66" y1="-83.82" x2="68.58" y2="-83.82"/>
	<text x="66.24" y="-83.06" style="font-size:1.68;text-anchor:end">
		(ADC0)PA0
	</text>
	<text x="70.92" y="-84.18" font-size="1.68">
		40
	</text>
	<line class="sw015" x1="73.66" y1="-86.36" x2="68.58" y2="-86.36"/>
	<text x="66.24" y="-85.6" style="font-size:1.68;text-anchor:end">
		(ADC1)PA1
	</text>
	<text x="70.92" y="-86.72" font-size="1.68">
		39
	</text>
	<line class="sw015" x1="73.66" y1="-88.9" x2="68.58" y2="-88.9"/>
	<text x="66.24" y="-88.14" style="font-size:1.68;text-anchor:end">
		(ADC2)PA2
	</text>
	<text x="70.92" y="-89.26" font-size="1.68">
		38
	</text>
	<line class="sw015" x1="73.66" y1="-91.44" x2="68.58" y2="-91.44"/>
	<text x="66.24" y="-90.68" style="font-size:1.68;text-anchor:end">
		(ADC3)PA3
	</text>
	<text x="70.92" y="-91.8" font-size="1.68">
		37
	</text>
	<line class="sw015" x1="73.66" y1="-93.98" x2="68.58" y2="-93.98"/>
	<text x="66.24" y="-93.22" style="font-size:1.68;text-anchor:end">
		(ADC4)PA4
	</text>
	<text x="70.92" y="-94.34" font-size="1.68">
		36
	</text>
	<line class="sw015" x1="73.66" y1="-96.52" x2="68.58" y2="-96.52"/>
	<text x="66.24" y="-95.76" style="font-size:1.68;text-anchor:end">
		(ADC5)PA5
	</text>
	<text x="70.92" y="-96.88" font-size="1.68">
		35
	</text>
	<line class="sw015" x1="73.66" y1="-99.06" x2="68.58" y2="-99.06"/>
	<text x="66.24" y="-98.3" style="font-size:1.68;text-anchor:end">
		(ADC6)PA6
	</text>
	<text x="70.92" y="-99.42" font-size="1.68">
		34
	</text>
	<line class="sw015" x1="73.66" y1="-101.6" x2="68.58" y2="-101.6"/>
	<text x="66.24" y="-100.84" style="font-size:1.68;text-anchor:end">
		(ADC7)PA7
	</text>
	<text x="70.92" y="-101.96" font-size="1.68">
		33
	</text>
	<line class="sw015" x1="73.66" y1="-66.04" x2="68.58" y2="-66.04"/>
	<text x="66.24" y="-65.28" style="font-size:1.68;text-anchor:end">
		(AIN0/INT2)PB2
	</text>
	<text x="70.92" y="-66.4" font-size="1.68">
		3
	</text>
	<line class="sw015" x1="73.66" y1="-68.58" x2="68.58" y2="-68.58"/>
	<text x="66.24" y="-67.82" style="font-size:1.68;text-anchor:end">
		(AIN1/OC0)PB3
	</text>
	<text x="70.92" y="-68.94" font-size="1.68">
		4
	</text>
	<line class="sw015" x1="73.66" y1="-30.48" x2="68.58" y2="-30.48"/>
	<text x="66.24" y="-29.72" style="font-size:1.68;text-anchor:end">
		(ICP)PD6
	</text>
	<text x="70.92" y="-30.84" font-size="1.68">
		20
	</text>
	<line class="sw015" x1="73.66" y1="-20.32" x2="68.58" y2="-20.32"/>
	<text x="66.24" y="-19.56" style="font-size:1.68;text-anchor:end">
		(INT0)PD2
	</text>
	<text x="70.92" y="-20.68" font-size="1.68">
		16
	</text>
	<line class="sw015" x1="73.66" y1="-22.86" x2="68.58" y2="-22.86"/>
	<text x="66.24" y="-22.1" style="font-size:1.68;text-anchor:end">
		(INT1)PD3
	</text>
	<text x="70.92" y="-23.22" font-size="1.68">
		17
	</text>
	<line class="sw015" x1="73.66" y1="-76.2" x2="68.58" y2="-76.2"/>
	<text x="66.24" y="-75.44" style="font-size:1.68;text-anchor:end">
		(MISO)PB6
	</text>
	<text x="70.92" y="-76.56" font-size="1.68">
		7
	</text>
	<line class="sw015" x1="73.66" y1="-73.66" x2="68.58" y2="-73.66"/>
	<text x="66.24" y="-72.9" style="font-size:1.68;text-anchor:end">
		(MOSI)PB5
	</text>
	<text x="70.92" y="-74.02" font-size="1.68">
		6
	</text>
	<line class="sw015" x1="73.66" y1="-27.94" x2="68.58" y2="-27.94"/>
	<text x="66.24" y="-27.18" style="font-size:1.68;text-anchor:end">
		(OC1A)PD5
	</text>
	<text x="70.92" y="-28.3" font-size="1.68">
		19
	</text>
	<line class="sw015" x1="73.66" y1="-25.4" x2="68.58" y2="-25.4"/>
	<text x="66.24" y="-24.64" style="font-size:1.68;text-anchor:end">
		(OC1B)PD4
	</text>
	<text x="70.92" y="-25.76" font-size="1.68">
		18
	</text>
	<line class="sw015" x1="73.66" y1="-33.02" x2="68.58" y2="-33.02"/>
	<text x="66.24" y="-32.26" style="font-size:1.68;text-anchor:end">
		(OC2)PD7
	</text>
	<text x="70.92" y="-33.38" font-size="1.68">
		21
	</text>
	<line class="sw015" x1="73.66" y1="-15.24" x2="68.58" y2="-15.24"/>
	<text x="66.24" y="-14.48" style="font-size:1.68;text-anchor:end">
		(RXD)PD0
	</text>
	<text x="70.92" y="-15.6" font-size="1.68">
		14
	</text>
	<line class="sw015" x1="73.66" y1="-78.74" x2="68.58" y2="-78.74"/>
	<text x="66.24" y="-77.98" style="font-size:1.68;text-anchor:end">
		(SCK)PB7
	</text>
	<text x="70.92" y="-79.1" font-size="1.68">
		8
	</text>
	<line class="sw015" x1="73.66" y1="-38.1" x2="68.58" y2="-38.1"/>
	<text x="66.24" y="-37.34" style="font-size:1.68;text-anchor:end">
		(SCL)PC0
	</text>
	<text x="70.92" y="-38.46" font-size="1.68">
		22
	</text>
	<line class="sw015" x1="73.66" y1="-40.64" x2="68.58" y2="-40.64"/>
	<text x="66.24" y="-39.88" style="font-size:1.68;text-anchor:end">
		(SDA)PC1
	</text>
	<text x="70.92" y="-41" font-size="1.68">
		23
	</text>
	<line class="sw015" x1="73.66" y1="-71.12" x2="68.58" y2="-71.12"/>
	<text x="66.24" y="-70.36" style="font-size:1.68;text-anchor:end">
		(SS)PB4
	</text>
	<text x="70.92" y="-71.48" font-size="1.68">
		5
	</text>
	<line class="sw015" x1="73.66" y1="-60.96" x2="68.58" y2="-60.96"/>
	<text x="66.24" y="-60.2" style="font-size:1.68;text-anchor:end">
		(T0/XCK)PB0
	</text>
	<text x="70.92" y="-61.32" font-size="1.68">
		1
	</text>
	<line class="sw015" x1="73.66" y1="-63.5" x2="68.58" y2="-63.5"/>
	<text x="66.24" y="-62.74" style="font-size:1.68;text-anchor:end">
		(T1)PB1
	</text>
	<text x="70.92" y="-63.86" font-size="1.68">
		2
	</text>
	<line class="sw015" x1="73.66" y1="-43.18" x2="68.58" y2="-43.18"/>
	<text x="66.24" y="-42.42" style="font-size:1.68;text-anchor:end">
		(TCK)PC2
	</text>
	<text x="70.92" y="-43.54" font-size="1.68">
		24
	</text>
	<line class="sw015" x1="73.66" y1="-50.8" x2="68.58" y2="-50.8"/>
	<text x="66.24" y="-50.04" style="font-size:1.68;text-anchor:end">
		(TDI)PC5
	</text>
	<text x="70.92" y="-51.16" font-size="1.68">
		27
	</text>
	<line class="sw015" x1="73.66" y1="-48.26" x2="68.58" y2="-48.26"/>
	<text x="66.24" y="-47.5" style="font-size:1.68;text-anchor:end">
		(TDO)PC4
	</text>
	<text x="70.92" y="-48.62" font-size="1.68">
		26
	</text>
	<line class="sw015" x1="73.66" y1="-45.72" x2="68.58" y2="-45.72"/>
	<text x="66.24" y="-44.96" style="font-size:1.68;text-anchor:end">
		(TMS)PC3
	</text>
	<text x="70.92" y="-46.08" font-size="1.68">
		25
	</text>
	<line class="sw015" x1="73.66" y1="-53.34" x2="68.58" y2="-53.34"/>
	<text x="66.24" y="-52.58" style="font-size:1.68;text-anchor:end">
		(TOSC1)PC6
	</text>
	<text x="70.92" y="-53.7" font-size="1.68">
		28
	</text>
	<line class="sw015" x1="73.66" y1="-55.88" x2="68.58" y2="-55.88"/>
	<text x="66.24" y="-55.12" style="font-size:1.68;text-anchor:end">
		(TOSC2)PC7
	</text>
	<text x="70.92" y="-56.24" font-size="1.68">
		29
	</text>
	<line class="sw015" x1="73.66" y1="-17.78" x2="68.58" y2="-17.78"/>
	<text x="66.24" y="-17.02" style="font-size:1.68;text-anchor:end">
		(TXD)PD1
	</text>
	<text x="70.92" y="-18.14" font-size="1.68">
		15
	</text>
	<line class="sw015" x1="33.02" y1="-83.82" x2="38.1" y2="-83.82"/>
	<text x="40.44" y="-83.06" font-size="1.68">
		AREF
	</text>
	<text x="35.76" y="-84.18" style="font-size:1.68;text-anchor:end">
		32
	</text>
	<line class="sw015" x1="33.02" y1="-81.28" x2="38.1" y2="-81.28"/>
	<text x="40.44" y="-80.52" font-size="1.68">
		AVCC
	</text>
	<text x="35.76" y="-81.64" style="font-size:1.68;text-anchor:end">
		30
	</text>
	<line class="sw015" x1="33.02" y1="-71.12" x2="38.1" y2="-71.12"/>
	<text x="40.44" y="-70.36" font-size="1.68">
		GND
	</text>
	<text x="35.76" y="-71.48" style="font-size:1.68;text-anchor:end">
		11
	</text>
	<line class="sw015" x1="33.02" y1="-78.74" x2="38.1" y2="-78.74"/>
	<text x="40.44" y="-77.98" font-size="1.68">
		GND
	</text>
	<text x="35.76" y="-79.1" style="font-size:1.68;text-anchor:end">
		31
	</text>
	<line class="sw015" x1="33.02" y1="-101.6" x2="36.12" y2="-101.6"/>
	<circle class="l" cx="37.11" cy="-101.6" r="0.99" stroke-width="0.15"/>
	<text x="40.44" y="-100.84" font-size="1.68">
		RESET
	</text>
	<text x="35.76" y="-101.96" style="font-size:1.68;text-anchor:end">
		9
	</text>
	<line class="sw015" x1="33.02" y1="-73.66" x2="38.1" y2="-73.66"/>
	<text x="40.44" y="-72.9" font-size="1.68">
		VCC
	</text>
	<text x="35.76" y="-74.02" style="font-size:1.68;text-anchor:end">
		10
	</text>
	<line class="sw015" x1="33.02" y1="-88.9" x2="38.1" y2="-88.9"/>
	<text x="40.44" y="-88.14" font-size="1.68">
		XTAL1
	</text>
	<text x="35.76" y="-89.26" style="font-size:1.68;text-anchor:end">
		13
	</text>
	<line class="sw015" x1="33.02" y1="-93.98" x2="38.1" y2="-93.98"/>
	<text x="40.44" y="-93.22" font-size="1.68">
		XTAL2
	</text>
	<text x="35.76" y="-94.34" style="font-size:1.68;text-anchor:end">
		12
	</text>
	<line class="sw025" x1="38.1" y1="-104.14" x2="68.58" y2="-104.14"/>
	<line class="sw025" x1="68.58" y1="-104.14" x2="68.58" y2="-12.7"/>
	<line class="sw025" x1="68.58" y1="-12.7" x2="38.1" y2="-12.7"/>
	<line class="sw025" x1="38.1" y1="-12.7" x2="38.1" y2="-104.14"/>
	<text x="38.1" y="-104.9" font-size="1.96">
		IC1
	</text>
	<text x="38.1" y="-10.16" font-size="1.96">
		MEGA32-P
	</text>
	<title>
		PART Q1
	</title>
	<line class="sw015" x1="22.86" y1="-92.46" x2="22.86" y2="-93.98"/>
	<line class="sw015" x1="22.86" y1="-88.9" x2="22.86" y2="-90.42"/>
	<line class="sw025" x1="21.34" y1="-91.06" x2="24.38" y2="-91.06"/>
	<line class="sw025" x1="24.38" y1="-91.06" x2="24.38" y2="-91.82"/>
	<line class="sw025" x1="24.38" y1="-91.82" x2="21.34" y2="-91.82"/>
	<line class="sw025" x1="21.34" y1="-91.82" x2="21.34" y2="-91.06"/>
	<line class="sw025" x1="21.08" y1="-92.46" x2="24.64" y2="-92.46"/>
	<line class="sw025" x1="21.08" y1="-90.42" x2="24.64" y2="-90.42"/>
	<text x="25.4" y="-91.44" font-size="1.96">
		Q1
	</text>
	<text x="20.32" y="-83.82" font-size="1.96">
		16MHz
	</text>
	<title>
		PART Q2
	</title>
	<rect x="146.81" y="-93.98" width="0.76" height="5.08" transform="rotate(-180.000000,147.193000,-91.440000)"/>
	<line class="sw015" x1="149.86" y1="-91.44" x2="147.32" y2="-91.44"/>
	<line class="sw015" x1="144.78" y1="-86.36" x2="144.78" y2="-88.9"/>
	<line class="sw015" x1="144.78" y1="-96.52" x2="144.78" y2="-93.98"/>
	<line class="sw015" x1="145.23" y1="-93.12" x2="145.74" y2="-94.03"/>
	<line class="sw015" x1="145.74" y1="-94.03" x2="146.8" y2="-92.92"/>
	<line class="sw015" x1="146.8" y1="-92.92" x2="145.23" y2="-93.12"/>
	<line class="sw015" x1="144.78" y1="-93.98" x2="145.51" y2="-93.56"/>
	<line class="sw015" x1="144.78" y1="-88.9" x2="146.81" y2="-89.92"/>
	<line class="sw025" x1="145.42" y1="-93.22" x2="145.8" y2="-93.85"/>
	<line class="sw025" x1="145.8" y1="-93.85" x2="146.56" y2="-93.09"/>
	<line class="sw025" x1="146.56" y1="-93.09" x2="145.54" y2="-93.22"/>
	<line class="sw025" x1="145.54" y1="-93.22" x2="145.8" y2="-93.6"/>
	<line class="sw025" x1="145.8" y1="-93.6" x2="146.18" y2="-93.34"/>
	<line class="sw025" x1="146.18" y1="-93.34" x2="145.8" y2="-93.34"/>
	<text x="157.48" y="-99.06" style="font-size:1.96;text-anchor:end">
		Q2
	</text>
	<text x="157.48" y="-96.52" style="font-size:1.96;text-anchor:end">
		2N3906
	</text>
	<title>
		PART R1
	</title>
	<line class="sw015" x1="116.84" y1="-86.36" x2="116.84" y2="-88.9"/>
	<line class="sw015" x1="116.84" y1="-96.52" x2="116.84" y2="-93.98"/>
	<line class="l94" x1="116.84" y1="-88.9" x2="115.82" y2="-89.28" style="stroke-linecap:round;stroke-width:0.2"/>
	<line class="l94" x1="115.82" y1="-89.28" x2="117.86" y2="-89.92" style="stroke-linecap:round;stroke-width:0.2"/>
	<line class="l94" x1="117.86" y1="-89.92" x2="115.82" y2="-90.55" style="stroke-linecap:round;stroke-width:0.2"/>
	<line class="l94" x1="115.82" y1="-90.55" x2="117.86" y2="-91.19" style="stroke-linecap:round;stroke-width:0.2"/>
	<line class="l94" x1="117.86" y1="-91.19" x2="115.82" y2="-91.82" style="stroke-linecap:round;stroke-width:0.2"/>
	<line class="l94" x1="115.82" y1="-91.82" x2="117.86" y2="-92.46" style="stroke-linecap:round;stroke-width:0.2"/>
	<line class="l94" x1="117.86" y1="-92.46" x2="115.82" y2="-93.09" style="stroke-linecap:round;stroke-width:0.2"/>
	<line class="l94" x1="115.82" y1="-93.09" x2="117.86" y2="-93.73" style="stroke-linecap:round;stroke-width:0.2"/>
	<line class="l94" x1="117.86" y1="-93.73" x2="116.84" y2="-93.98" style="stroke-linecap:round;stroke-width:0.2"/>
	<text x="0" y="0" transform="translate(115.341400, -87.630000) rotate(-90.000000)" font-size="1.96">
		R1
	</text>
	<text x="0" y="0" transform="translate(120.142000, -87.630000) rotate(-90.000000)" font-size="1.96">
		10K
	</text>
	<title>
		PART R2
	</title>
	<line class="sw015" x1="167.64" y1="-93.98" x2="167.64" y2="-96.52"/>
	<line class="sw015" x1="167.64" y1="-104.14" x2="167.64" y2="-101.6"/>
	<line class="l94" x1="167.64" y1="-96.52" x2="166.62" y2="-96.9" style="stroke-linecap:round;stroke-width:0.2"/>
	<line class="l94" x1="166.62" y1="-96.9" x2="168.66" y2="-97.54" style="stroke-linecap:round;stroke-width:0.2"/>
	<line class="l94" x1="168.66" y1="-97.54" x2="166.62" y2="-98.17" style="stroke-linecap:round;stroke-width:0.2"/>
	<line class="l94" x1="166.62" y1="-98.17" x2="168.66" y2="-98.81" style="stroke-linecap:round;stroke-width:0.2"/>
	<line class="l94" x1="168.66" y1="-98.81" x2="166.62" y2="-99.44" style="stroke-linecap:round;stroke-width:0.2"/>
	<line class="l94" x1="166.62" y1="-99.44" x2="168.66" y2="-100.08" style="stroke-linecap:round;stroke-width:0.2"/>
	<line class="l94" x1="168.66" y1="-100.08" x2="166.62" y2="-100.71" style="stroke-linecap:round;stroke-width:0.2"/>
	<line class="l94" x1="166.62" y1="-100.71" x2="168.66" y2="-101.35" style="stroke-linecap:round;stroke-width:0.2"/>
	<line class="l94" x1="168.66" y1="-101.35" x2="167.64" y2="-101.6" style="stroke-linecap:round;stroke-width:0.2"/>
	<text x="0" y="0" transform="translate(166.141400, -95.250000) rotate(-90.000000)" font-size="1.96">
		R2
	</text>
	<text x="0" y="0" transform="translate(170.942000, -95.250000) rotate(-90.000000)" font-size="1.96">
		10K
	</text>
	<title>
		PART R3
	</title>
	<line class="sw015" x1="167.64" y1="-66.04" x2="167.64" y2="-68.58"/>
	<line class="sw015" x1="167.64" y1="-76.2" x2="167.64" y2="-73.66"/>
	<line class="l94" x1="167.64" y1="-68.58" x2="166.62" y2="-68.96" style="stroke-linecap:round;stroke-width:0.2"/>
	<line class="l94" x1="166.62" y1="-68.96" x2="168.66" y2="-69.6" style="stroke-linecap:round;stroke-width:0.2"/>
	<line class="l94" x1="168.66" y1="-69.6" x2="166.62" y2="-70.23" style="stroke-linecap:round;stroke-width:0.2"/>
	<line class="l94" x1="166.62" y1="-70.23" x2="168.66" y2="-70.87" style="stroke-linecap:round;stroke-width:0.2"/>
	<line class="l94" x1="168.66" y1="-70.87" x2="166.62" y2="-71.5" style="stroke-linecap:round;stroke-width:0.2"/>
	<line class="l94" x1="166.62" y1="-71.5" x2="168.66" y2="-72.14" style="stroke-linecap:round;stroke-width:0.2"/>
	<line class="l94" x1="168.66" y1="-72.14" x2="166.62" y2="-72.77" style="stroke-linecap:round;stroke-width:0.2"/>
	<line class="l94" x1="166.62" y1="-72.77" x2="168.66" y2="-73.41" style="stroke-linecap:round;stroke-width:0.2"/>
	<line class="l94" x1="168.66" y1="-73.41" x2="167.64" y2="-73.66" style="stroke-linecap:round;stroke-width:0.2"/>
	<text x="0" y="0" transform="translate(166.141400, -67.310000) rotate(-90.000000)" font-size="1.96">
		R3
	</text>
	<text x="0" y="0" transform="translate(170.942000, -67.310000) rotate(-90.000000)" font-size="1.96">
		5K
	</text>
	<title>
		PART R4
	</title>
	<line class="sw015" x1="106.68" y1="-27.94" x2="104.14" y2="-27.94"/>
	<line class="sw015" x1="96.52" y1="-27.94" x2="99.06" y2="-27.94"/>
	<line class="l94" x1="104.14" y1="-27.94" x2="103.76" y2="-26.92" style="stroke-linecap:round;stroke-width:0.2"/>
	<line class="l94" x1="103.76" y1="-26.92" x2="103.12" y2="-28.96" style="stroke-linecap:round;stroke-width:0.2"/>
	<line class="l94" x1="103.12" y1="-28.96" x2="102.49" y2="-26.92" style="stroke-linecap:round;stroke-width:0.2"/>
	<line class="l94" x1="102.49" y1="-26.92" x2="101.85" y2="-28.96" style="stroke-linecap:round;stroke-width:0.2"/>
	<line class="l94" x1="101.85" y1="-28.96" x2="101.22" y2="-26.92" style="stroke-linecap:round;stroke-width:0.2"/>
	<line class="l94" x1="101.22" y1="-26.92" x2="100.58" y2="-28.96" style="stroke-linecap:round;stroke-width:0.2"/>
	<line class="l94" x1="100.58" y1="-28.96" x2="99.95" y2="-26.92" style="stroke-linecap:round;stroke-width:0.2"/>
	<line class="l94" x1="99.95" y1="-26.92" x2="99.31" y2="-28.96" style="stroke-linecap:round;stroke-width:0.2"/>
	<line class="l94" x1="99.31" y1="-28.96" x2="99.06" y2="-27.94" style="stroke-linecap:round;stroke-width:0.2"/>
	<text x="105.41" y="-24.66" style="font-size:1.96;text-anchor:end">
		R4
	</text>
	<text x="105.41" y="-29.46" style="font-size:1.96;text-anchor:end">
		1K
	</text>
	<title>
		PART R5
	</title>
	<line class="sw015" x1="116.84" y1="-33.02" x2="114.3" y2="-33.02"/>
	<line class="sw015" x1="106.68" y1="-33.02" x2="109.22" y2="-33.02"/>
	<line class="l94" x1="114.3" y1="-33.02" x2="113.92" y2="-32" style="stroke-linecap:round;stroke-width:0.2"/>
	<line class="l94" x1="113.92" y1="-32" x2="113.28" y2="-34.04" style="stroke-linecap:round;stroke-width:0.2"/>
	<line class="l94" x1="113.28" y1="-34.04" x2="112.65" y2="-32" style="stroke-linecap:round;stroke-width:0.2"/>
	<line class="l94" x1="112.65" y1="-32" x2="112.01" y2="-34.04" style="stroke-linecap:round;stroke-width:0.2"/>
	<line class="l94" x1="112.01" y1="-34.04" x2="111.38" y2="-32" style="stroke-linecap:round;stroke-width:0.2"/>
	<line class="l94" x1="111.38" y1="-32" x2="110.74" y2="-34.04" style="stroke-linecap:round;stroke-width:0.2"/>
	<line class="l94" x1="110.74" y1="-34.04" x2="110.11" y2="-32" style="stroke-linecap:round;stroke-width:0.2"/>
	<line class="l94" x1="110.11" y1="-32" x2="109.47" y2="-34.04" style="stroke-linecap:round;stroke-width:0.2"/>
	<line class="l94" x1="109.47" y1="-34.04" x2="109.22" y2="-33.02" style="stroke-linecap:round;stroke-width:0.2"/>
	<text x="115.57" y="-29.74" style="font-size:1.96;text-anchor:end">
		R5
	</text>
	<text x="115.57" y="-34.54" style="font-size:1.96;text-anchor:end">
		10K
	</text>
	<title>
		PART SUPPLY1
	</title>
	<circle class="l" cx="0" cy="-113.03" r="1.27" stroke-width="0.25"/>
	<line class="sw015" x1="0" y1="-109.22" x2="0" y2="-111.76"/>
	<text x="-1.9" y="-114.93" font-size="1.96">
		VCC
	</text>
	<title>
		PART SUPPLY2
	</title>
	<line class="sw015" x1="5.08" y1="-66.04" x2="5.08" y2="-63.5"/>
	<line class="sw025" x1="3.81" y1="-63.5" x2="6.35" y2="-63.5"/>
	<line class="sw025" x1="6.35" y1="-63.5" x2="5.08" y2="-62.23"/>
	<line class="sw025" x1="5.08" y1="-62.23" x2="3.81" y2="-63.5"/>
	<text x="3.18" y="-60.32" font-size="1.96">
		GND
	</text>
	<title>
		PART SUPPLY3
	</title>
	<circle class="l" cx="134.62" cy="-113.03" r="1.27" stroke-width="0.25"/>
	<line class="sw015" x1="134.62" y1="-109.22" x2="134.62" y2="-111.76"/>
	<text x="132.72" y="-114.93" font-size="1.96">
		VCC
	</text>
	<title>
		PART SUPPLY4
	</title>
	<circle class="l" cx="167.64" cy="-113.03" r="1.27" stroke-width="0.25"/>
	<line class="sw015" x1="167.64" y1="-109.22" x2="167.64" y2="-111.76"/>
	<text x="165.74" y="-114.93" font-size="1.96">
		~10.3V
	</text>
	<title>
		PART SUPPLY5
	</title>
	<line class="sw015" x1="144.78" y1="-68.58" x2="144.78" y2="-66.04"/>
	<line class="sw025" x1="143.51" y1="-66.04" x2="146.05" y2="-66.04"/>
	<line class="sw025" x1="146.05" y1="-66.04" x2="144.78" y2="-64.77"/>
	<line class="sw025" x1="144.78" y1="-64.77" x2="143.51" y2="-66.04"/>
	<text x="142.88" y="-62.86" font-size="1.96">
		GND
	</text>
	<title>
		PART SUPPLY6
	</title>
	<line class="sw015" x1="167.64" y1="-63.5" x2="167.64" y2="-60.96"/>
	<line class="sw025" x1="166.37" y1="-60.96" x2="168.91" y2="-60.96"/>
	<line class="sw025" x1="168.91" y1="-60.96" x2="167.64" y2="-59.69"/>
	<line class="sw025" x1="167.64" y1="-59.69" x2="166.37" y2="-60.96"/>
	<text x="165.74" y="-57.78" font-size="1.96">
		GND
	</text>
	<title>
		PART SUPPLY7
	</title>
	<line class="sw015" x1="88.9" y1="-17.78" x2="88.9" y2="-15.24"/>
	<line class="sw025" x1="87.63" y1="-15.24" x2="90.17" y2="-15.24"/>
	<line class="sw025" x1="90.17" y1="-15.24" x2="88.9" y2="-13.97"/>
	<line class="sw025" x1="88.9" y1="-13.97" x2="87.63" y2="-15.24"/>
	<text x="87" y="-12.06" font-size="1.96">
		GND
	</text>
	<title>
		PART T1
	</title>
	<rect x="169.67" y="-86.36" width="0.76" height="5.08" transform="rotate(-180.000000,170.053000,-83.820000)"/>
	<line class="sw015" x1="172.72" y1="-83.82" x2="170.18" y2="-83.82"/>
	<line class="sw015" x1="167.64" y1="-88.9" x2="167.64" y2="-86.36"/>
	<line class="sw015" x1="167.64" y1="-78.74" x2="167.64" y2="-81.28"/>
	<line class="sw015" x1="167.64" y1="-86.36" x2="169.67" y2="-85.34"/>
	<line class="sw015" x1="168.4" y1="-82.3" x2="167.64" y2="-81.28"/>
	<line class="sw015" x1="167.64" y1="-81.28" x2="168.91" y2="-81.28"/>
	<line class="sw015" x1="168.91" y1="-81.28" x2="168.4" y2="-82.3"/>
	<line class="sw015" x1="168.64" y1="-81.78" x2="169.87" y2="-82.4"/>
	<line class="sw025" x1="168.66" y1="-81.41" x2="167.89" y2="-81.41"/>
	<line class="sw025" x1="167.89" y1="-81.41" x2="168.4" y2="-82.04"/>
	<line class="sw025" x1="168.4" y1="-82.04" x2="168.66" y2="-81.53"/>
	<line class="sw025" x1="168.66" y1="-81.53" x2="168.28" y2="-81.53"/>
	<line class="sw025" x1="168.28" y1="-81.53" x2="168.4" y2="-81.79"/>
	<text x="180.34" y="-91.44" style="font-size:1.96;text-anchor:end">
		T1
	</text>
	<text x="180.34" y="-88.9" style="font-size:1.96;text-anchor:end">
		2N3904
	</text>
	<title>
		PART T2
	</title>
	<rect x="146.81" y="-78.74" width="0.76" height="5.08" transform="rotate(-180.000000,147.193000,-76.200000)"/>
	<line class="sw015" x1="149.86" y1="-76.2" x2="147.32" y2="-76.2"/>
	<line class="sw015" x1="144.78" y1="-81.28" x2="144.78" y2="-78.74"/>
	<line class="sw015" x1="144.78" y1="-71.12" x2="144.78" y2="-73.66"/>
	<line class="sw015" x1="144.78" y1="-78.74" x2="146.81" y2="-77.72"/>
	<line class="sw015" x1="145.54" y1="-74.68" x2="144.78" y2="-73.66"/>
	<line class="sw015" x1="144.78" y1="-73.66" x2="146.05" y2="-73.66"/>
	<line class="sw015" x1="146.05" y1="-73.66" x2="145.54" y2="-74.68"/>
	<line class="sw015" x1="145.78" y1="-74.16" x2="147.01" y2="-74.78"/>
	<line class="sw025" x1="145.8" y1="-73.79" x2="145.03" y2="-73.79"/>
	<line class="sw025" x1="145.03" y1="-73.79" x2="145.54" y2="-74.42"/>
	<line class="sw025" x1="145.54" y1="-74.42" x2="145.8" y2="-73.91"/>
	<line class="sw025" x1="145.8" y1="-73.91" x2="145.42" y2="-73.91"/>
	<line class="sw025" x1="145.42" y1="-73.91" x2="145.54" y2="-74.17"/>
	<text x="157.48" y="-83.82" style="font-size:1.96;text-anchor:end">
		T2
	</text>
	<text x="157.48" y="-81.28" style="font-size:1.96;text-anchor:end">
		2N3904
	</text>
</svg>
